<?xml version="1.0" encoding="UTF-8"?>
<svg version="1.1" xmlns="http://www.w3.org/2000/svg" width="32" height="32">
<path d="M0 0 C10.56 0 21.12 0 32 0 C32 10.56 32 21.12 32 32 C21.44 32 10.88 32 0 32 C0 21.44 0 10.88 0 0 Z " fill="#010B0F" transform="translate(0,0)"/>
<path d="M0 0 C2.09765625 0.5546875 2.09765625 0.5546875 4.0703125 1.25390625 C6.32848864 2.06582137 6.32848864 2.06582137 10.03515625 1.8671875 C9.80828125 2.4240625 9.58140625 2.9809375 9.34765625 3.5546875 C8.91299801 6.77115844 10.37396917 8.1677585 12.03515625 10.8671875 C11.70515625 11.8571875 11.37515625 12.8471875 11.03515625 13.8671875 C10.37515625 13.8671875 9.71515625 13.8671875 9.03515625 13.8671875 C9.03515625 14.8571875 9.03515625 15.8471875 9.03515625 16.8671875 C7.38515625 16.8671875 5.73515625 16.8671875 4.03515625 16.8671875 C4.36515625 17.1971875 4.69515625 17.5271875 5.03515625 17.8671875 C5.03515625 18.5271875 5.03515625 19.1871875 5.03515625 19.8671875 C2.39515625 19.8671875 -0.24484375 19.8671875 -2.96484375 19.8671875 C-3.29484375 18.8771875 -3.62484375 17.8871875 -3.96484375 16.8671875 C-5.28484375 16.8671875 -6.60484375 16.8671875 -7.96484375 16.8671875 C-8.29484375 15.5471875 -8.62484375 14.2271875 -8.96484375 12.8671875 C-9.62484375 12.8671875 -10.28484375 12.8671875 -10.96484375 12.8671875 C-10.96484375 12.2071875 -10.96484375 11.5471875 -10.96484375 10.8671875 C-10.30484375 10.5371875 -9.64484375 10.2071875 -8.96484375 9.8671875 C-8.69671875 9.1246875 -8.42859375 8.3821875 -8.15234375 7.6171875 C-6.56402851 3.93898379 -4.56770245 -0.30875126 0 0 Z " fill="#112932" transform="translate(14.96484375,3.1328125)"/>
<path d="M0 0 C3.375 -0.1875 3.375 -0.1875 7 0 C7.66 0.99 8.32 1.98 9 3 C11.55183404 4.20450304 11.55183404 4.20450304 14 5 C13.67 5.99 13.34 6.98 13 8 C12.34 8 11.68 8 11 8 C11 8.99 11 9.98 11 11 C9.35 11 7.7 11 6 11 C6.33 11.33 6.66 11.66 7 12 C7 12.66 7 13.32 7 14 C4.36 14 1.72 14 -1 14 C-1.33 13.01 -1.66 12.02 -2 11 C-2.99 11 -3.98 11 -5 11 C-4.67 10.01 -4.34 9.02 -4 8 C-1.36 8 1.28 8 4 8 C4.33 6.35 4.66 4.7 5 3 C3.35 2.67 1.7 2.34 0 2 C0 1.34 0 0.68 0 0 Z " fill="#4A5154" transform="translate(13,9)"/>
<path d="M0 0 C0.33 0.66 0.66 1.32 1 2 C3.52733235 2.65555119 3.52733235 2.65555119 6 3 C5.67 4.65 5.34 6.3 5 8 C3.081875 8.185625 3.081875 8.185625 1.125 8.375 C-2.34790936 8.69042399 -2.34790936 8.69042399 -5 11 C-5.33 9.68 -5.66 8.36 -6 7 C-6.66 7 -7.32 7 -8 7 C-8 6.34 -8 5.68 -8 5 C-5 4 -5 4 -2 4 C-1.34 2.68 -0.68 1.36 0 0 Z " fill="#254543" transform="translate(12,9)"/>
<path d="M0 0 C3.375 -0.1875 3.375 -0.1875 7 0 C7.66 0.99 8.32 1.98 9 3 C11.55183404 4.20450304 11.55183404 4.20450304 14 5 C13.67 5.99 13.34 6.98 13 8 C10.03 7.67 7.06 7.34 4 7 C4.33 5.68 4.66 4.36 5 3 C3.35 2.67 1.7 2.34 0 2 C0 1.34 0 0.68 0 0 Z " fill="#377985" transform="translate(13,9)"/>
<path d="M0 0 C0.99 0 1.98 0 3 0 C3 0.66 3 1.32 3 2 C3.99 2.33 4.98 2.66 6 3 C6 3.66 6 4.32 6 5 C1.57219251 7.95187166 1.57219251 7.95187166 -1 9 C-4.31011084 8.24770208 -6.161742 6.892172 -9 5 C-8.67 4.34 -8.34 3.68 -8 3 C-4.7 3.66 -1.4 4.32 2 5 C2 4.34 2 3.68 2 3 C1.34 3 0.68 3 0 3 C0 2.01 0 1.02 0 0 Z " fill="#3F191D" transform="translate(18,18)"/>
<path d="M0 0 C0.66 0.99 1.32 1.98 2 3 C0.88820837 6.33537489 -0.47411298 7.63707344 -3 10 C-2.34 10.33 -1.68 10.66 -1 11 C-1.99 11.33 -2.98 11.66 -4 12 C-4.66 11.67 -5.32 11.34 -6 11 C-6.375 8.875 -6.375 8.875 -6 6 C-4.20659643 3.76086748 -2.16547337 1.87545461 0 0 Z " fill="#231E21" transform="translate(13,3)"/>
<path d="M0 0 C0.33 0.66 0.66 1.32 1 2 C1.66 2 2.32 2 3 2 C3 3.65 3 5.3 3 7 C0.36 7 -2.28 7 -5 7 C-5 6.34 -5 5.68 -5 5 C-3.68 5 -2.36 5 -1 5 C-1 3.68 -1 2.36 -1 1 C-0.67 0.67 -0.34 0.34 0 0 Z " fill="#594C3B" transform="translate(12,9)"/>
<path d="M0 0 C0.763125 0.350625 1.52625 0.70125 2.3125 1.0625 C5.04759379 2.32360884 5.04759379 2.32360884 8 1 C7.67 3.31 7.34 5.62 7 8 C1.125 3.375 1.125 3.375 0 0 Z " fill="#4F2019" transform="translate(17,4)"/>
<path d="M0 0 C2.64 0 5.28 0 8 0 C8 0.99 8 1.98 8 3 C5.36 3 2.72 3 0 3 C0 2.01 0 1.02 0 0 Z " fill="#7F8487" transform="translate(8,17)"/>
<path d="M0 0 C2.31 0 4.62 0 7 0 C7 1.32 7 2.64 7 4 C5.35 4 3.7 4 2 4 C1.34 2.68 0.68 1.36 0 0 Z " fill="#5A6D70" transform="translate(17,16)"/>
<path d="M0 0 C2.97 0.33 5.94 0.66 9 1 C8.67 1.99 8.34 2.98 8 4 C5.03 3.67 2.06 3.34 -1 3 C-0.67 2.01 -0.34 1.02 0 0 Z " fill="#0D9094" transform="translate(18,13)"/>
<path d="M0 0 C0.66 1.32 1.32 2.64 2 4 C0.35 4.33 -1.3 4.66 -3 5 C-3 5.66 -3 6.32 -3 7 C-3.99 7.33 -4.98 7.66 -6 8 C-4.55746343 4.63408134 -2.66735273 2.48952921 0 0 Z " fill="#9B2C1E" transform="translate(13,3)"/>
</svg>
